<svg xmlns="http://www.w3.org/2000/svg" xmlns:xlink="http://www.w3.org/1999/xlink" width="500" zoomAndPan="magnify" viewBox="0 0 375 374.999991" height="500" preserveAspectRatio="xMidYMid meet" version="1.0"><defs><filter x="0%" y="0%" width="100%" height="100%" id="b1eb4bedb0"><feColorMatrix values="0 0 0 0 1 0 0 0 0 1 0 0 0 0 1 0 0 0 1 0" color-interpolation-filters="sRGB"/></filter><mask id="e853fc640f"><g filter="url(#b1eb4bedb0)"><rect x="-37.5" width="450" fill="#000000" y="-37.499999" height="449.999989" fill-opacity="0.2"/></g></mask><clipPath id="1cdd659330"><path d="M 1.492188 0.328125 L 177 0.328125 L 177 203 L 1.492188 203 Z M 1.492188 0.328125 " clip-rule="nonzero"/></clipPath><clipPath id="e588e1b306"><path d="M 88 150 L 263.242188 150 L 263.242188 352.828125 L 88 352.828125 Z M 88 150 " clip-rule="nonzero"/></clipPath><clipPath id="1ce63c9232"><path d="M 88 50 L 263.242188 50 L 263.242188 252 L 88 252 Z M 88 50 " clip-rule="nonzero"/></clipPath><clipPath id="895205b6c0"><rect x="0" width="264" y="0" height="353"/></clipPath></defs><g mask="url(#e853fc640f)"><g transform="matrix(1, 0, 0, 1, 55, 11)"><g clip-path="url(#895205b6c0)"><g clip-path="url(#1cdd659330)"><path fill="#5c41fe" d="M 88.804688 0.375 L 176.117188 50.808594 L 176.117188 151.671875 L 88.804688 202.105469 L 1.492188 151.671875 L 1.492188 50.808594 Z M 88.804688 0.375 " fill-opacity="1" fill-rule="evenodd"/></g><g clip-path="url(#e588e1b306)"><path fill="#735cff" d="M 176.1875 150.886719 L 263.5 201.320312 L 263.5 302.1875 L 176.1875 352.621094 L 88.875 302.1875 L 88.875 201.320312 Z M 176.1875 150.886719 " fill-opacity="1" fill-rule="evenodd"/></g><g clip-path="url(#1ce63c9232)"><path fill="#1800ad" d="M 175.832031 55.371094 L 258.578125 103.167969 L 258.578125 198.683594 L 175.832031 246.476562 L 93.085938 198.683594 L 93.085938 103.167969 Z M 175.832031 50.023438 L 263.144531 100.457031 L 263.144531 201.320312 L 175.832031 251.753906 L 88.519531 201.320312 L 88.519531 100.457031 Z M 175.832031 50.023438 " fill-opacity="1" fill-rule="evenodd"/></g></g></g></g></svg>